<svg xmlns="http://www.w3.org/2000/svg" viewBox="0 0 97.43 53"><defs><style>.cls-1{fill:#3b3b3b;}</style></defs><title>eye_open</title><g id="Ebene_2" data-name="Ebene 2"><g id="Ebene_1-2" data-name="Ebene 1"><g id="noun_Eye_2037681" data-name="noun Eye 2037681"><g id="Group_4019" data-name="Group 4019"><g id="Group_4018" data-name="Group 4018"><g id="Group_4020" data-name="Group 4020"><path id="Path_3831" data-name="Path 3831" class="cls-1" d="M96.74,24.62A59.23,59.23,0,0,0,48.72,0a62.73,62.73,0,0,0-48,24.62,2.8,2.8,0,0,0,0,3.68c1,3.76,21.65,24.7,48,24.7s45-20.17,48-24.61A2.9,2.9,0,0,0,96.74,24.62ZM49.44,43.73a55.69,55.69,0,0,1-38-17.24c5.21-5.38,19-18.11,38-18.11S81.59,21.2,86.83,26.5A53.33,53.33,0,0,1,49.44,43.73Z"/><path id="Path_3832" data-name="Path 3832" class="cls-1" d="M48.26,6.8A19.48,19.48,0,1,0,67.74,26.27,19.47,19.47,0,0,0,48.26,6.8Zm0,30.33A10.86,10.86,0,1,1,59.12,26.27h0A10.86,10.86,0,0,1,48.26,37.13Z"/><circle id="Ellipse_314" data-name="Ellipse 314" class="cls-1" cx="51.35" cy="28.01" r="15.08"/></g></g></g></g></g></g></svg>